<svg id="Layer_1" data-name="Layer 1" xmlns="http://www.w3.org/2000/svg" viewBox="0 0 1837.47 666.5"><defs><style>.cls-1,.cls-2,.cls-3{fill:#606c76;}.cls-1,.cls-5{fill-rule:evenodd;}.cls-3{font-size:48px;font-family: -apple-system, BlinkMacSystemFont, "Segoe UI", Roboto, Helvetica, Arial, sans-serif, "Apple Color Emoji", "Segoe UI Emoji", "Segoe UI Symbol";font-weight:200;}.cls-4,.cls-5,.cls-7{fill:none;stroke:#606c76;stroke-width:3px;}.cls-4,.cls-5{stroke-miterlimit:10;}.cls-6{fill:#fff;}.cls-7{stroke-linejoin:round;}</style></defs><path class="cls-1" d="M93.57,577.53a11.72,11.72,0,0,1,4.65,3.71,11.56,11.56,0,0,1,2.28,6.9A11.43,11.43,0,0,1,99.42,593l-.38.82H80.18v16.6l4.12,3.75h6.2a5.24,5.24,0,1,1,0,2.84H83.21l-5.86-5.35V593.83H71.49v20.06l5.86,6.43v7.29a5.25,5.25,0,1,1-2.83,0v-6.2L68.65,615V593.83H62.79V620A5.24,5.24,0,1,1,60,620V593.83H54.09V615l-5.86,6.43v6.2a5.25,5.25,0,1,1-2.84,0v-7.29l5.86-6.43V593.83H45.39v17.84L39.53,617H32.24a5.24,5.24,0,1,1,0-2.84h6.2l4.12-3.75v-16.6H24.34L24,593a16.89,16.89,0,0,1-1.27-3.6,16.51,16.51,0,0,1-.44-3.79,16.89,16.89,0,0,1,12.5-16.29A20.28,20.28,0,0,1,72.08,560a14.37,14.37,0,0,1,2.5-.92A15.39,15.39,0,0,1,94,573.94a14.86,14.86,0,0,1-.21,2.49c-.06.37-.13.74-.22,1.1ZM78.34,632.66a2.41,2.41,0,1,0-2.41,2.41,2.4,2.4,0,0,0,2.41-2.41ZM59,625a2.41,2.41,0,1,0,2.41-2.41A2.41,2.41,0,0,0,59,625ZM44.4,632.66a2.41,2.41,0,1,0,2.41-2.41,2.41,2.41,0,0,0-2.41,2.41ZM95.55,618a2.41,2.41,0,1,0-2.41-2.41A2.41,2.41,0,0,0,95.55,618Zm-68.36,0a2.41,2.41,0,1,0-2.41-2.41A2.41,2.41,0,0,0,27.19,618ZM96,582.93a8.78,8.78,0,0,0-4.51-3.17l-1.39-.43.46-1.38a11.58,11.58,0,0,0,.49-2,12.22,12.22,0,0,0,.16-2A12.53,12.53,0,0,0,78.62,561.4a12.76,12.76,0,0,0-3.3.43,12.62,12.62,0,0,0-3.06,1.29l-1.26.74-.7-1.28a17.45,17.45,0,0,0-32.79,7.94l0,1.14-1.11.22a14,14,0,0,0-11.29,13.77,14.23,14.23,0,0,0,.35,3.16,14,14,0,0,0,.71,2.19H97.19c.1-.32.2-.64.27-1a9,9,0,0,0,.2-1.89A8.74,8.74,0,0,0,96,582.93Z"/><path class="cls-2" d="M249.45,469.57V663.5H3V469.57H249.45m3-3H0V666.5H252.45V466.57Z"/><text class="cls-3" transform="translate(157.32 522.53)">API</text><path class="cls-1" d="M591.91,596V582.35a8.89,8.89,0,0,1-5.74,2.37l-.09-2.82a6,6,0,0,0,5.82-6h2.83V596h11.7a8.43,8.43,0,0,1-.46-1.89,18.07,18.07,0,0,1,.7-6.63,16.2,16.2,0,0,1,3.33-6.81,5.32,5.32,0,0,1,9.36,2.5,16.17,16.17,0,0,1-.53,7.57,20.9,20.9,0,0,1-1.84,4.76l-.3.5h7.36v14.24l-.35.4-23.07,26.47v11.81H584.07V637.08L561,610.61l-.34-.4V596H568a5.09,5.09,0,0,1-.3-.5,20.43,20.43,0,0,1-1.85-4.76,17,17,0,0,1-.61-7.15A5.38,5.38,0,0,1,575,581a17,17,0,0,1,3,6.5,17.85,17.85,0,0,1,.7,6.63,7.92,7.92,0,0,1-.45,1.89Zm-20.28,0H575a3.73,3.73,0,0,0,.92-2.24,15.41,15.41,0,0,0-.62-5.55,14.22,14.22,0,0,0-2.47-5.4,2.59,2.59,0,0,0-4.8,1.28,14.56,14.56,0,0,0,.57,5.92,18.24,18.24,0,0,0,1.59,4.1,6.55,6.55,0,0,0,1.46,1.89Zm38.08,0h3.34a6.74,6.74,0,0,0,1.47-1.89,18.37,18.37,0,0,0,1.58-4.1,13.72,13.72,0,0,0,.51-6.2,2.53,2.53,0,0,0-4.55-1.22,13.7,13.7,0,0,0-2.66,5.62,15.41,15.41,0,0,0-.62,5.55,3.68,3.68,0,0,0,.93,2.24ZM597.8,646.05V636l.35-.4,21.55-24.74H565l21.56,24.74.35.4v10Zm23.41-38v-9.24H563.49v9.24Zm-36.64-56.34a5.27,5.27,0,0,1,4.84,3.12,19.81,19.81,0,0,1,0,14.88,5.32,5.32,0,0,1-9.69,0,19.81,19.81,0,0,1,0-14.88,5.28,5.28,0,0,1,4.85-3.12Zm2.35,4.44a2.53,2.53,0,0,0-4.71,0,17.4,17.4,0,0,0,0,12.23,2.53,2.53,0,0,0,4.71,0,17.4,17.4,0,0,0,0-12.23Zm16.34,16.26V558.25a8.86,8.86,0,0,1-5.74,2.38l-.09-2.83a6,6,0,0,0,5.83-6h2.82v20.65Z"/><path class="cls-2" d="M784.2,469.57V663.5H537.75V469.57H784.2m3-3H534.75V666.5H787.2V466.57Z"/><text class="cls-3" transform="translate(682.28 522.53)">ETL</text><path class="cls-1" d="M1010.09,283.5a44.19,44.19,0,0,1-10.86,3.75,85.71,85.71,0,0,1-34.85,0,44,44,0,0,1-10.85-3.75v12.07c0,3.31,5.24,5.67,7.78,6.63,11.27,4.27,29.72,4.27,41,0,2.54-1,7.79-3.32,7.79-6.63V283.5Zm-56.56-3.25V263.09a44,44,0,0,0,10.85,3.75,85.71,85.71,0,0,0,34.85,0,44.19,44.19,0,0,0,10.86-3.75v17.16a37.81,37.81,0,0,1-11.47,4.24,83.53,83.53,0,0,1-33.63,0,37.74,37.74,0,0,1-11.46-4.24Zm59.38,15.32c0,4.79-5.78,7.82-9.61,9.27-11.92,4.52-31.07,4.52-43,0-3.83-1.45-9.61-4.48-9.61-9.27V236.71c0-3.75,3.68-7,9.62-9.27,5.52-2.1,13.12-3.39,21.49-3.39s16,1.29,21.49,3.39c5.94,2.25,9.61,5.52,9.61,9.27v58.86Zm-59.38-53.42v17.69A37.74,37.74,0,0,0,965,264.08a83.53,83.53,0,0,0,33.63,0,37.81,37.81,0,0,0,11.47-4.24V242.15a21.87,21.87,0,0,1-6.79,3.84c-5.53,2.1-13.13,3.39-21.49,3.39s-16-1.29-21.49-3.39a21.87,21.87,0,0,1-6.79-3.84Zm48.77-12.07c-5.22-2-12.46-3.2-20.49-3.2s-15.28,1.23-20.5,3.2c-4.8,1.82-7.77,4.18-7.77,6.63s3,4.82,7.77,6.64c5.22,2,12.47,3.2,20.5,3.2s15.27-1.23,20.49-3.2c4.81-1.82,7.78-4.18,7.78-6.64S1007.11,231.9,1002.3,230.08Z"/><path class="cls-1" d="M903.17,283.5a44,44,0,0,1-10.85,3.75,85.71,85.71,0,0,1-34.85,0,44,44,0,0,1-10.85-3.75v12.07c0,3.31,5.24,5.67,7.78,6.63,11.27,4.27,29.71,4.27,41,0,2.54-1,7.78-3.32,7.78-6.63V283.5Zm-56.55-3.25V263.09a44,44,0,0,0,10.85,3.75,85.71,85.71,0,0,0,34.85,0,44,44,0,0,0,10.85-3.75v17.16a37.64,37.64,0,0,1-11.46,4.24,83.53,83.53,0,0,1-33.63,0,37.64,37.64,0,0,1-11.46-4.24ZM906,295.57c0,4.79-5.78,7.82-9.6,9.27-11.92,4.52-31.07,4.52-43,0-3.83-1.45-9.61-4.48-9.61-9.27V236.71c0-3.75,3.67-7,9.61-9.27,5.53-2.1,13.13-3.39,21.49-3.39s16,1.29,21.5,3.39c5.94,2.25,9.61,5.52,9.61,9.27v58.86Zm-59.37-53.42v17.69a37.64,37.64,0,0,0,11.46,4.24,83.53,83.53,0,0,0,33.63,0,37.64,37.64,0,0,0,11.46-4.24V242.15a21.93,21.93,0,0,1-6.78,3.84c-5.53,2.1-13.13,3.39-21.5,3.39s-16-1.29-21.49-3.39a21.81,21.81,0,0,1-6.78-3.84Zm48.77-12.07c-5.22-2-12.46-3.2-20.5-3.2s-15.27,1.23-20.49,3.2c-4.81,1.82-7.78,4.18-7.78,6.63s3,4.82,7.78,6.64c5.22,2,12.46,3.2,20.49,3.2s15.28-1.23,20.5-3.2c4.8-1.82,7.78-4.18,7.78-6.64S900.19,231.9,895.39,230.08Z"/><line class="cls-4" x1="928.27" y1="166.56" x2="928.27" y2="205.56"/><polyline class="cls-5" points="939.88 211.19 981.84 211.19 981.73 236.72"/><polyline class="cls-5" points="874.75 236.72 874.86 211.19 916.6 211.19"/><rect class="cls-4" x="916.6" y="205.56" width="23.28" height="10.51"/><path class="cls-5" d="M709,166.39h249.3c11.95-28,1.44-45.48-18.26-54.41,6.11-43.61-33.23-76.26-71.73-58.42C830.4-5,747.09,26.33,743.73,84.71,703.23,101.81,695.45,130.36,709,166.39Z"/><text class="cls-3" transform="translate(838.57 144.44)">DB</text><path class="cls-1" d="M1151,644.47a69.92,69.92,0,0,1,1.71-11.52c1.54-6.35,4.32-11.62,7.06-16.83a81.7,81.7,0,0,0,5.14-11c5.41-15.5,2.36-34-13.93-41.39a35.69,35.69,0,0,0-12.27-3,42.42,42.42,0,0,0-10.13.54,34.49,34.49,0,0,0-17.82,8.67,22.47,22.47,0,0,0-7.15,15.21c-.24,4.7-.27,6.43-3.11,10.38l-6.47,8.57c-1.26,1.69-1.12,3.43.94,4.41,4.36,2.1,5,5.73,5,10.1v9.71c0,3.94,1.85,5.23,5.66,5.24,7.91,0,14.11,2.23,15.17,11Zm-9.72-72.18a18.71,18.71,0,0,1,3.81,1.59l2.54-2.81,1-1.1,1.05,1,5.57,5.56,1,1-1.1,1-2.81,2.54A18.79,18.79,0,0,1,1154,585l3.78-.19,1.48-.08v10.84l-1.48-.07-3.78-.19a18.79,18.79,0,0,1-1.59,3.82l2.81,2.54,1.1,1-1,1.05-5.57,5.57-1.05,1.05-1-1.11-2.54-2.8a18.13,18.13,0,0,1-3.81,1.58l.19,3.78.07,1.49h-10.84l.07-1.49.19-3.78a18.13,18.13,0,0,1-3.81-1.58l-2.54,2.8-1,1.11-1-1.05L1117,603.7l-1-1.05,1.1-1,2.81-2.54a18.79,18.79,0,0,1-1.59-3.82l-3.78.19-1.48.07V584.72l1.48.08,3.78.19a18.79,18.79,0,0,1,1.59-3.82l-2.81-2.54-1.1-1,1-1,5.57-5.56,1-1,1,1.1,2.54,2.81a18.71,18.71,0,0,1,3.81-1.59l-.19-3.78-.07-1.48h10.84l-.07,1.48-.19,3.78Zm-1.77,2.48a15.47,15.47,0,0,1,5.09,2.11l1,.64.8-.89,2.32-2.56,3.46,3.47-2.56,2.31-.89.81.65,1a15.64,15.64,0,0,1,2.11,5.08l.25,1.18,1.2-.06,3.45-.18v4.9l-3.45-.17-1.2-.06-.25,1.17a15.69,15.69,0,0,1-2.11,5.09l-.65,1,.89.8,2.56,2.32-3.46,3.47-2.32-2.56-.8-.89-1,.64a15.69,15.69,0,0,1-5.09,2.11l-1.17.26.06,1.19.17,3.45h-4.9l.17-3.45.06-1.19-1.17-.26a15.69,15.69,0,0,1-5.09-2.11l-1-.64-.8.89-2.32,2.56-3.46-3.47,2.56-2.32.89-.8-.65-1a15.69,15.69,0,0,1-2.11-5.09l-.25-1.17-1.2.06-3.45.17v-4.9l3.45.18,1.2.06.25-1.18a15.55,15.55,0,0,1,2.11-5.08l.65-1-.89-.81-2.56-2.31,3.46-3.47,2.32,2.56.8.89,1-.64a15.47,15.47,0,0,1,5.09-2.11l1.17-.26-.06-1.19-.17-3.45h4.9l-.17,3.45-.06,1.19,1.17.26Zm-3.39,5.92a9.46,9.46,0,1,1-6.69,2.77,9.46,9.46,0,0,1,6.69-2.77Zm4.68,4.77a6.61,6.61,0,1,1-4.68-1.94,6.61,6.61,0,0,1,4.68,1.94ZM1153.72,646l-.08,1.34h-35.52L1118,646c-.46-8-5.32-9.62-12.46-9.64-5.38,0-8.5-2.52-8.5-8.06v-9.71c0-3.21-.12-6-3.35-7.55-3.63-1.74-4.39-5.51-2-8.67l6.47-8.56c2.38-3.37,2.34-4.85,2.54-8.82a25.3,25.3,0,0,1,8-17.11,37.4,37.4,0,0,1,19.29-9.42,45,45,0,0,1,10.82-.57,38.47,38.47,0,0,1,13.25,3.28c17.66,8.06,21.32,28,15.42,44.89a84.27,84.27,0,0,1-5.31,11.4c-2.66,5.06-5.36,10.18-6.82,16.19A69.53,69.53,0,0,0,1153.72,646Z"/><path class="cls-2" d="M1319,469.57V663.5H1072.5V469.57H1319m3-3H1069.5V666.5H1322V466.57Z"/><text class="cls-3" transform="translate(1267.71 522.53)">A</text><rect class="cls-6" x="1604.25" y="469.95" width="117.93" height="143.85"/><rect class="cls-6" x="1602.75" y="468.45" width="120.94" height="146.85" rx="1.5"/><path class="cls-2" d="M1722.19,470V613.81H1604.25V470h117.94m0-3H1604.25a3,3,0,0,0-3,3V613.81a3,3,0,0,0,3,3h117.94a3,3,0,0,0,3-3V470a3,3,0,0,0-3-3Z"/><path class="cls-1" d="M1612.7,474.37a2.41,2.41,0,0,0-4.82,0m0,0a2.41,2.41,0,0,0,4.82,0"/><path class="cls-1" d="M1621.52,474.37a2.41,2.41,0,0,0-4.82,0m0,0a2.41,2.41,0,0,0,4.82,0"/><path class="cls-1" d="M1629.87,474.37a2.41,2.41,0,1,0-4.82,0m0,0a2.41,2.41,0,1,0,4.82,0"/><rect class="cls-6" x="1611.62" y="483.98" width="120.93" height="146.85" rx="1.5"/><path class="cls-2" d="M1731.06,485.48V629.33H1613.12V485.48h117.94m0-3H1613.12a3,3,0,0,0-3,3V629.33a3,3,0,0,0,3,3h117.94a3,3,0,0,0,3-3V485.48a3,3,0,0,0-3-3Z"/><path class="cls-1" d="M1621.57,489.89a2.41,2.41,0,1,0-4.82,0m0,0a2.41,2.41,0,1,0,4.82,0"/><path class="cls-1" d="M1630.39,489.89a2.41,2.41,0,0,0-4.82,0m0,0a2.41,2.41,0,0,0,4.82,0"/><path class="cls-1" d="M1638.74,489.89a2.41,2.41,0,1,0-4.81,0m0,0a2.41,2.41,0,1,0,4.81,0"/><rect class="cls-2" x="1617.56" y="500.26" width="109.06" height="2.83"/><rect class="cls-2" x="1617.56" y="507" width="109.06" height="2.83"/><rect class="cls-2" x="1617.56" y="513.92" width="24.66" height="2.83"/><rect class="cls-2" x="1624.25" y="540.05" width="22.83" height="2.83" transform="translate(1094.19 2177.13) rotate(-90)"/><rect class="cls-2" x="1635.13" y="544" width="14.92" height="2.83" transform="translate(1097.17 2188.01) rotate(-90)"/><rect class="cls-2" x="1686.58" y="540.05" width="22.83" height="2.83" transform="translate(1156.53 2239.46) rotate(-90)"/><rect class="cls-2" x="1699.73" y="546.27" width="10.39" height="2.83" transform="translate(1157.24 2252.61) rotate(-90)"/><rect class="cls-2" x="1674.44" y="541.76" width="19.4" height="2.83" transform="translate(1140.96 2227.32) rotate(-90)"/><rect class="cls-2" x="1683.61" y="544" width="14.92" height="2.83" transform="translate(1145.65 2236.49) rotate(-90)"/><rect class="cls-2" x="1624.76" y="555.44" width="7.95" height="2.83" transform="translate(1071.88 2185.59) rotate(-90)"/><rect class="cls-2" x="1650.55" y="557.37" width="11.78" height="2.83" transform="translate(2215.23 -1097.65) rotate(90)"/><rect class="cls-2" x="1655.9" y="558.94" width="14.92" height="2.83" transform="translate(2223.73 -1103) rotate(90)"/><rect class="cls-2" x="1645.54" y="547.51" width="7.95" height="2.83" transform="translate(2198.44 -1100.59) rotate(90)"/><rect class="cls-2" x="1707.87" y="547.51" width="7.95" height="2.83" transform="translate(2260.77 -1162.92) rotate(90)"/><rect class="cls-2" x="1658.88" y="540.05" width="22.83" height="2.83" transform="translate(1128.82 2211.76) rotate(-90)"/><rect class="cls-2" x="1673.24" y="547.51" width="7.95" height="2.83" transform="translate(2226.14 -1128.29) rotate(90)"/><rect class="cls-6" x="1679.5" y="558.29" width="152.52" height="106.7" rx="1.5"/><path class="cls-2" d="M1830.52,559.79v103.7H1681V559.79h149.52m0-3H1681a3,3,0,0,0-3,3v103.7a3,3,0,0,0,3,3h149.52a3,3,0,0,0,3-3V559.79a3,3,0,0,0-3-3Z"/><rect class="cls-2" x="1700.32" y="598.79" width="22.83" height="2.83" transform="translate(1111.52 2311.94) rotate(-90)"/><rect class="cls-2" x="1711.2" y="602.74" width="14.92" height="2.83" transform="translate(1114.5 2322.82) rotate(-90)"/><rect class="cls-2" x="1762.66" y="598.79" width="22.83" height="2.83" transform="translate(1173.86 2374.28) rotate(-90)"/><rect class="cls-2" x="1775.8" y="605.01" width="10.39" height="2.83" transform="translate(1174.57 2387.42) rotate(-90)"/><rect class="cls-2" x="1750.52" y="600.5" width="19.4" height="2.83" transform="translate(1158.29 2362.14) rotate(-90)"/><rect class="cls-2" x="1759.68" y="602.74" width="14.92" height="2.83" transform="translate(1162.98 2371.3) rotate(-90)"/><rect class="cls-2" x="1700.84" y="614.18" width="7.95" height="2.83" transform="translate(1089.21 2320.4) rotate(-90)"/><rect class="cls-2" x="1726.62" y="616.12" width="11.78" height="2.83" transform="translate(2350.05 -1114.98) rotate(90)"/><rect class="cls-2" x="1731.98" y="617.69" width="14.92" height="2.83" transform="translate(2358.54 -1120.33) rotate(90)"/><rect class="cls-2" x="1721.61" y="606.25" width="7.95" height="2.83" transform="translate(2333.26 -1117.92) rotate(90)"/><rect class="cls-2" x="1783.95" y="606.25" width="7.95" height="2.83" transform="translate(2395.59 -1180.25) rotate(90)"/><rect class="cls-2" x="1734.95" y="598.79" width="22.83" height="2.83" transform="translate(1146.15 2346.57) rotate(-90)"/><rect class="cls-2" x="1749.32" y="606.25" width="7.95" height="2.83" transform="translate(2360.96 -1145.62) rotate(90)"/><line class="cls-7" x1="1811.24" y1="559.79" x2="1811.24" y2="663.49"/><path class="cls-1" d="M1820.87,614.05a2.41,2.41,0,1,0,0-4.82m0,0a2.41,2.41,0,1,0,0,4.82"/><text class="cls-3" transform="translate(1793.46 522.53)">R</text><line class="cls-4" x1="327.3" y1="566.53" x2="459.9" y2="566.53"/><polyline class="cls-4" points="445.34 552.12 459.9 566.67 444.88 581.69"/><line class="cls-4" x1="862.05" y1="566.53" x2="994.65" y2="566.53"/><polyline class="cls-4" points="980.09 552.12 994.65 566.67 979.63 581.69"/><polyline class="cls-4" points="876.61 581.09 862.05 566.53 877.07 551.51"/><path class="cls-4" d="M693.44,381.79c0-66.68,23.34-93.76,93.76-93.76"/><polyline class="cls-4" points="708 367.23 693.44 381.79 678.42 366.77"/><polyline class="cls-4" points="772.64 273.47 787.2 288.02 772.18 303.04"/><line class="cls-4" x1="1396.8" y1="566.53" x2="1529.4" y2="566.53"/><polyline class="cls-4" points="1514.84 552.12 1529.4 566.67 1514.38 581.69"/><polyline class="cls-4" points="1411.36 581.09 1396.8 566.53 1411.82 551.51"/><path class="cls-4" d="M1163.26,381.79c0-66.68-23.34-93.76-93.76-93.76"/><polyline class="cls-4" points="1148.7 367.23 1163.26 381.79 1178.28 366.77"/><polyline class="cls-4" points="1084.06 273.47 1069.5 288.02 1084.52 303.04"/></svg>
